<svg xmlns="http://www.w3.org/2000/svg" width="132" height="83" viewBox="0 0 132 83">
    <g fill="none" fill-rule="evenodd">
        <path fill="#FFF" d="M0 0h132v83H0z"/>
        <path fill="#2B2B2B" d="M42.315 37.29h5.49c-.168-1.495-.577-2.82-1.227-3.977a9.667 9.667 0 0 0-2.475-2.91c-1-.783-2.131-1.379-3.396-1.789A12.989 12.989 0 0 0 36.68 28c-1.975 0-3.751.35-5.329 1.048-1.577.699-2.908 1.663-3.991 2.892-1.084 1.229-1.915 2.668-2.493 4.319-.578 1.65-.867 3.44-.867 5.368 0 1.879.289 3.632.867 5.259.578 1.626 1.409 3.042 2.493 4.247 1.083 1.204 2.414 2.15 3.991 2.837 1.578.687 3.354 1.03 5.329 1.03 1.589 0 3.046-.241 4.37-.723a10.133 10.133 0 0 0 3.468-2.096c.988-.916 1.783-2.024 2.385-3.326.602-1.3.975-2.759 1.12-4.373h-5.491c-.217 1.735-.813 3.132-1.788 4.193-.976 1.06-2.33 1.59-4.064 1.59-1.277 0-2.36-.247-3.252-.74a6.204 6.204 0 0 1-2.167-1.97 8.55 8.55 0 0 1-1.21-2.766 13.144 13.144 0 0 1-.38-3.162c0-1.133.127-2.23.38-3.29s.656-2.006 1.21-2.837a6.14 6.14 0 0 1 2.167-1.988c.891-.494 1.975-.74 3.252-.74.698 0 1.366.114 2.004.342a5.83 5.83 0 0 1 1.716.958c.506.41.928.886 1.265 1.428.337.542.554 1.139.65 1.79zm8.814 4.192c.072-1.205.373-2.205.903-3a6.151 6.151 0 0 1 2.023-1.916 8.812 8.812 0 0 1 2.764-1.03 15.703 15.703 0 0 1 3.088-.307c.94 0 1.89.066 2.854.199a8.726 8.726 0 0 1 2.637.777 5.197 5.197 0 0 1 1.95 1.608c.507.687.76 1.597.76 2.73v9.722c0 .843.048 1.65.144 2.422.096.77.265 1.35.506 1.735h-5.202a7.368 7.368 0 0 1-.361-1.808 6.684 6.684 0 0 1-2.89 1.772c-1.108.337-2.24.506-3.396.506a9.17 9.17 0 0 1-2.493-.326 5.707 5.707 0 0 1-2.022-1.012 4.71 4.71 0 0 1-1.355-1.735c-.325-.699-.488-1.53-.488-2.494 0-1.06.187-1.933.56-2.62a4.683 4.683 0 0 1 1.445-1.645 6.472 6.472 0 0 1 2.023-.921 21.585 21.585 0 0 1 2.294-.488c.77-.12 1.53-.217 2.276-.29.746-.072 1.409-.18 1.987-.325.578-.144 1.035-.355 1.372-.632.337-.277.494-.681.47-1.211 0-.554-.09-.994-.271-1.32a1.993 1.993 0 0 0-.723-.759 2.841 2.841 0 0 0-1.047-.361 8.568 8.568 0 0 0-1.283-.09c-1.011 0-1.806.217-2.384.65-.578.434-.915 1.157-1.011 2.169h-5.13zm11.849 3.795a2.3 2.3 0 0 1-.813.452 8.298 8.298 0 0 1-1.047.271c-.374.072-.765.133-1.175.18-.409.049-.818.11-1.228.181a9.26 9.26 0 0 0-1.138.29c-.373.12-.698.283-.975.488a2.32 2.32 0 0 0-.668.777c-.169.313-.253.71-.253 1.192 0 .458.084.844.253 1.157.168.313.397.56.686.741.29.18.626.307 1.012.38.385.072.782.108 1.192.108 1.011 0 1.794-.169 2.348-.506.554-.337.963-.741 1.228-1.21.265-.47.427-.947.488-1.429.06-.482.09-.867.09-1.156v-1.916zm13.077 3.072h-4.877c.048 1.253.331 2.296.849 3.127a6.2 6.2 0 0 0 1.987 2.006c.807.506 1.728.867 2.763 1.084a15.885 15.885 0 0 0 6.304.018c1.023-.204 1.933-.56 2.727-1.066a5.928 5.928 0 0 0 1.933-2.006c.494-.831.74-1.861.74-3.09 0-.868-.168-1.597-.505-2.187a4.631 4.631 0 0 0-1.337-1.482 7.188 7.188 0 0 0-1.896-.958 21.66 21.66 0 0 0-2.186-.614 86.538 86.538 0 0 0-2.131-.47 16.475 16.475 0 0 1-1.86-.488c-.542-.18-.982-.416-1.32-.705a1.408 1.408 0 0 1-.505-1.12c0-.386.097-.693.29-.922.192-.229.427-.404.704-.524.277-.12.584-.199.92-.235a8.85 8.85 0 0 1 .94-.054c.915 0 1.71.174 2.384.524.674.35 1.048 1.018 1.12 2.006h4.877c-.097-1.157-.392-2.115-.885-2.874a5.848 5.848 0 0 0-1.86-1.825c-.747-.458-1.596-.783-2.547-.976a14.788 14.788 0 0 0-2.945-.29c-1.011 0-1.998.091-2.962.272-.963.18-1.83.494-2.6.94a5.194 5.194 0 0 0-1.861 1.825c-.47.771-.704 1.76-.704 2.964 0 .82.168 1.512.505 2.078a4.393 4.393 0 0 0 1.337 1.41 7.467 7.467 0 0 0 1.896.903c.71.23 1.44.428 2.186.597 1.83.385 3.257.77 4.28 1.156 1.024.386 1.536.964 1.536 1.735 0 .458-.108.838-.325 1.139a2.464 2.464 0 0 1-.813.723 3.87 3.87 0 0 1-1.084.397 5.484 5.484 0 0 1-1.138.127c-.505 0-.993-.06-1.463-.18a3.794 3.794 0 0 1-1.246-.561 3 3 0 0 1-.885-.976c-.229-.397-.343-.873-.343-1.428zM91.48 28.614v25.808h5.13v-9.795c0-1.904.313-3.272.939-4.103.626-.831 1.637-1.247 3.034-1.247 1.228 0 2.083.38 2.565 1.139.482.759.722 1.91.722 3.451v10.555H109V42.928c0-1.157-.102-2.211-.307-3.163-.205-.952-.56-1.759-1.066-2.422-.505-.662-1.198-1.18-2.077-1.554-.879-.373-2.005-.56-3.377-.56-.964 0-1.951.247-2.963.74-1.011.495-1.842 1.284-2.492 2.368h-.109v-9.723h-5.13z"/>
    </g>
</svg>
