<svg width="132" height="83" viewBox="0 0 132 83" fill="none" xmlns="http://www.w3.org/2000/svg">
<rect width="132" height="83" fill="white"/>
<path fill-rule="evenodd" clip-rule="evenodd" d="M120 2H12C9.79086 2 8 3.79086 8 6V77C8 79.2091 9.79086 81 12 81H120C122.209 81 124 79.2091 124 77V6C124 3.79086 122.209 2 120 2ZM12 0C8.68629 0 6 2.68629 6 6V77C6 80.3137 8.68629 83 12 83H120C123.314 83 126 80.3137 126 77V6C126 2.68629 123.314 0 120 0H12Z" fill="black"/>
<path fill-rule="evenodd" clip-rule="evenodd" d="M82.0318 29.0006H88V40.0006H84V61.0002H48V40.0006H44V29.0006H49.856C49.5823 28.6069 49.3493 28.2051 49.1777 27.7829C48.7813 26.8076 48.7456 25.8189 49.0416 24.6828C50.0991 20.6245 54.8763 19.0735 59.319 20.5797C62.5715 21.6823 65.1895 24.2691 65.9439 27.1683C66.6983 24.2691 69.3164 21.6823 72.5689 20.5797C77.0116 19.0735 81.7887 20.6245 82.8462 24.6828C83.1423 25.8189 83.1065 26.8076 82.7101 27.7829C82.5386 28.2051 82.3056 28.6069 82.0318 29.0006ZM67.6997 29.0006H79.564C80.2843 28.1696 80.6988 27.6097 80.9114 27.0866C81.1007 26.6208 81.1571 26.1116 80.9521 25.3249C80.2816 22.7517 76.9299 21.2076 73.0732 22.515C69.5941 23.6944 67.5705 26.5615 67.6997 29.0006ZM52.3238 29.0006C51.6036 28.1696 51.189 27.6097 50.9764 27.0866C50.7871 26.6208 50.7307 26.1116 50.9357 25.3249C51.6063 22.7517 54.9579 21.2076 58.8147 22.515C62.2937 23.6944 64.3174 26.5615 64.1882 29.0006H52.3238ZM60 38.0006V31.0006H46V38.0006H60ZM50 40.0006H60V59.0002H50V40.0006ZM70 59.0002H62V31.0006H70L70 59.0002ZM72 59.0002H82V40.0006H72L72 59.0002ZM72 38.0006H86V31.0006H72V38.0006Z" fill="black"/>
</svg>
