<svg width="132" height="83" viewBox="0 0 132 83" fill="none" xmlns="http://www.w3.org/2000/svg">
<rect width="132" height="83" fill="white"/>
<g clip-path="url(#clip0)">
<path d="M78.9903 18.4316H52.981V65.053H78.9903V18.4316Z" fill="#FF5F00"/>
<path d="M54.6328 41.7423C54.6328 32.6816 58.8438 24.0328 66.0273 18.4316C53.1465 8.30012 34.4033 10.5241 24.3298 23.4562C14.2563 36.3883 16.4031 55.0038 29.3665 65.053C40.1831 73.5371 55.2933 73.5371 66.1099 65.053C58.7612 59.3695 54.5502 50.803 54.6328 41.7423Z" fill="#EB001B"/>
<path d="M114 41.7424C114 58.134 100.707 71.3956 84.2752 71.3956C77.5871 71.3956 71.1467 69.1716 65.9448 65.0531C78.8256 54.9216 81.055 36.2236 70.9816 23.3739C69.4953 21.4794 67.8439 19.832 65.9448 18.3493C78.8256 8.21784 97.5689 10.4418 107.725 23.3739C111.771 28.5632 114 35.0704 114 41.7424Z" fill="#F79E1B"/>
<path d="M111.193 60.1109V59.1225H111.606V58.9578H110.615V59.1225H111.028V60.1109H111.193ZM113.092 60.1109V58.9578H112.762L112.431 59.7815L112.101 58.9578H111.853V60.1109H112.101V59.2872L112.431 60.0286H112.679L113.009 59.2872V60.1933L113.092 60.1109Z" fill="#F79E1B"/>
</g>
<defs>
<clipPath id="clip0">
<rect width="96.0002" height="59.416" fill="white" transform="translate(18 12)"/>
</clipPath>
</defs>
</svg>
