<svg width="132" height="83" viewBox="0 0 132 83" fill="none" xmlns="http://www.w3.org/2000/svg">
<rect width="132" height="83" fill="white"/>
<path d="M89.9151 23.9057L92.3255 17.5354H103V6H30V79H103V67.4646H92.842L89.0542 63.1604L85.2665 67.4646H56.6863V44.3939H47.217L59.0967 17.7075H70.6321L73.3868 23.7335V17.7075H87.6769L89.9151 23.9057ZM81.9953 28.2099V25.6274L83.0283 28.2099L87.8491 40.9505H92.3255L97.1462 28.2099L98.0071 25.6274V40.7783H103V21.3231H94.7359L90.9481 31.1368L89.9151 33.8915L88.8821 31.1368L85.0943 21.3231H76.8302V40.7783H81.9953V28.2099ZM71.3208 40.7783H77.0024L68.3939 21.3231H61.6792L53.0708 40.7783H58.7524L60.3019 36.9906H69.7712L71.3208 40.7783ZM64.0896 28.0377L65.1226 25.6274L66.1557 28.0377L68.2217 33.0307H62.1958L64.0896 28.0377ZM60.6462 44.3939V63.8491H76.8302V59.717H65.467V56.2736H76.4859V52.1415H65.467V48.6981H76.8302V44.566L60.6462 44.3939ZM95.0802 63.6769H101.45L92.3255 54.0354L101.45 44.3939H95.0802L89.2264 50.7641L83.3726 44.3939H76.8302L85.9552 54.2075L76.8302 63.8491H83.0283L88.8821 57.4788L95.0802 63.6769ZM97.4906 54.0354L103 59.717V48.5259L97.4906 54.0354Z" fill="#006FCF"/>
</svg>
