<svg xmlns="http://www.w3.org/2000/svg" width="132" height="83" viewBox="0 0 132 83">
    <g fill="none" fill-rule="evenodd">
        <path fill="#FFF" d="M0 0h132v83H0z"/>
        <path fill="#000" d="M12 33v14.139h2.943v-9.466h.04l5.945 9.466h3.143V33h-2.943v9.485h-.04L15.123 33H12zm21.5 7.92c-.134-.712-.37-1.253-.71-1.623-.341-.37-.858-.554-1.552-.554-.454 0-.831.075-1.131.227-.3.152-.54.34-.721.565a2.06 2.06 0 0 0-.38.713c-.074.25-.117.475-.13.673H33.5zm-4.625 1.783c.04.91.274 1.57.701 1.98.427.41 1.041.614 1.842.614.574 0 1.067-.142 1.481-.426.414-.284.667-.584.76-.9h2.503c-.4 1.227-1.014 2.105-1.842 2.633-.827.528-1.828.792-3.002.792-.814 0-1.548-.129-2.202-.386a4.582 4.582 0 0 1-1.662-1.1 4.938 4.938 0 0 1-1.05-1.702 6.173 6.173 0 0 1-.371-2.178c0-.766.127-1.479.38-2.139a5.011 5.011 0 0 1 1.081-1.713 5.09 5.09 0 0 1 1.672-1.138c.647-.278 1.364-.416 2.152-.416.88 0 1.648.168 2.302.505a4.582 4.582 0 0 1 1.611 1.356c.42.568.724 1.215.911 1.94.187.727.254 1.486.2 2.278h-7.467zm12.752-5.802v-3.07h-2.842v3.07h-1.722v1.881h1.722v6.04c0 .515.086.93.26 1.247.173.317.41.561.71.733.3.172.648.287 1.041.347.394.059.811.089 1.252.089.28 0 .567-.007.86-.02.294-.013.56-.04.801-.08V44.96a4.023 4.023 0 0 1-.42.06c-.147.013-.3.02-.46.02-.481 0-.801-.08-.962-.238-.16-.158-.24-.475-.24-.95v-5.07h2.082v-1.881h-2.082zm6.886 1.822h3.183c.56 0 1.021-.132 1.382-.396.36-.264.54-.693.54-1.287 0-.33-.06-.601-.18-.812a1.325 1.325 0 0 0-.48-.495 2.04 2.04 0 0 0-.691-.248 4.63 4.63 0 0 0-.81-.07h-2.944v3.308zM45.371 33h6.726c.68 0 1.301.06 1.861.178.561.119 1.041.314 1.442.584.4.271.71.63.93 1.08.22.448.331 1.003.331 1.663 0 .713-.164 1.307-.49 1.782-.327.475-.811.865-1.452 1.168.881.251 1.538.69 1.972 1.317.434.627.65 1.383.65 2.268 0 .712-.14 1.33-.42 1.851a3.62 3.62 0 0 1-1.13 1.277 5.03 5.03 0 0 1-1.622.733 7.384 7.384 0 0 1-1.872.238h-6.926V33zm3.142 11.723h3.364c.307 0 .6-.03.88-.09.28-.059.528-.158.741-.296a1.5 1.5 0 0 0 .51-.565c.127-.237.19-.541.19-.91 0-.727-.206-1.245-.62-1.555-.414-.31-.96-.465-1.641-.465h-3.424v3.88zm10.53-4.673c.04-.66.207-1.208.5-1.644a3.393 3.393 0 0 1 1.122-1.05 4.918 4.918 0 0 1 1.531-.564 8.798 8.798 0 0 1 1.712-.168c.52 0 1.047.036 1.581.109.534.072 1.021.214 1.461.425.44.212.801.505 1.081.882.28.376.42.874.42 1.495v5.326c0 .462.027.905.08 1.327.054.423.148.74.281.95H65.93a4 4 0 0 1-.2-.99 3.711 3.711 0 0 1-1.601.97 6.493 6.493 0 0 1-1.882.278c-.494 0-.954-.06-1.381-.178a3.177 3.177 0 0 1-1.121-.555c-.32-.25-.57-.567-.75-.95-.181-.383-.271-.838-.271-1.366 0-.581.103-1.06.31-1.436.207-.376.474-.677.8-.901.328-.225.702-.393 1.122-.505.42-.112.844-.201 1.271-.267.427-.066.848-.12 1.261-.159a7.66 7.66 0 0 0 1.101-.178c.32-.08.574-.195.76-.347.188-.151.275-.372.261-.663 0-.304-.05-.544-.15-.723a1.097 1.097 0 0 0-.4-.416 1.586 1.586 0 0 0-.58-.198 4.801 4.801 0 0 0-.712-.049c-.56 0-1 .119-1.32.356-.321.238-.508.634-.561 1.189h-2.843zm6.566 2.079c-.12.105-.27.188-.45.247a4.64 4.64 0 0 1-.58.149c-.208.04-.424.072-.651.099-.227.026-.454.06-.681.099a5.18 5.18 0 0 0-.63.158 1.872 1.872 0 0 0-.541.268 1.275 1.275 0 0 0-.37.425c-.094.172-.14.39-.14.654 0 .25.046.462.14.633.093.172.22.307.38.406.16.1.347.169.56.208.214.04.434.06.661.06.56 0 .994-.093 1.301-.278.307-.184.534-.406.68-.663.148-.257.238-.518.271-.782.034-.264.05-.475.05-.634v-1.05zm5.045-5.228v10.238h2.842v-5.367c0-1.043.174-1.792.52-2.247.348-.456.908-.683 1.682-.683.681 0 1.155.208 1.422.623.267.416.4 1.047.4 1.891v5.783h2.843v-6.297c0-.634-.057-1.212-.17-1.733-.114-.522-.31-.964-.591-1.327-.28-.363-.664-.647-1.151-.851-.487-.205-1.111-.307-1.872-.307-.6 0-1.188.135-1.761.406-.574.27-1.041.703-1.402 1.297h-.06V36.9h-2.702zM82.784 33v14.139h2.844v-3.525l1.1-1.05 2.843 4.575h3.443l-4.344-6.476 3.904-3.762H89.21l-3.583 3.683V33h-2.843zm14.154 2.317V33h-2.843v2.317h2.843zM94.095 36.9v10.238h2.843V36.9h-2.843zm5.085 0v10.238h2.843v-5.367c0-1.043.173-1.792.52-2.247.347-.456.908-.683 1.682-.683.68 0 1.154.208 1.42.623.268.416.401 1.047.401 1.891v5.783h2.843v-6.297c0-.634-.057-1.212-.17-1.733-.114-.522-.31-.964-.59-1.327-.281-.363-.665-.647-1.152-.851-.487-.205-1.11-.307-1.872-.307-.6 0-1.187.135-1.761.406-.574.27-1.041.703-1.401 1.297h-.06V36.9H99.18zm16.695 7.822c.4 0 .754-.08 1.061-.238.307-.158.56-.37.761-.634.2-.264.35-.564.45-.9.1-.337.15-.69.15-1.06 0-.422-.04-.822-.12-1.198a2.974 2.974 0 0 0-.4-1 2.063 2.063 0 0 0-.74-.693c-.308-.172-.695-.257-1.162-.257-.4 0-.744.079-1.03.237a2.16 2.16 0 0 0-.721.644 2.7 2.7 0 0 0-.42.93 4.55 4.55 0 0 0-.13 1.1c0 .37.036.735.11 1.098.073.364.2.69.38.98.18.291.417.529.71.714.294.184.66.277 1.101.277zM121 46.485c0 .41-.057.878-.17 1.406a3.452 3.452 0 0 1-.73 1.475c-.375.456-.915.842-1.622 1.159-.708.317-1.655.475-2.843.475a6.689 6.689 0 0 1-1.551-.188 4.959 4.959 0 0 1-1.442-.584 3.526 3.526 0 0 1-1.08-1.02c-.288-.416-.451-.914-.491-1.495h2.822c.134.528.394.894.781 1.099.387.205.834.307 1.341.307.801 0 1.385-.238 1.752-.713s.544-1.076.53-1.802v-1.347h-.04c-.306.542-.744.941-1.31 1.198a4.286 4.286 0 0 1-1.792.387c-.774 0-1.442-.136-2.002-.406a3.79 3.79 0 0 1-1.381-1.11 4.605 4.605 0 0 1-.791-1.643 7.712 7.712 0 0 1-.25-1.99c0-.66.096-1.297.29-1.91a4.976 4.976 0 0 1 .85-1.625 4.103 4.103 0 0 1 1.392-1.118c.554-.278 1.191-.416 1.912-.416.68 0 1.277.125 1.791.376.514.25.944.673 1.291 1.267h.04v-1.366H121v9.584z"/>
    </g>
</svg>
