<svg xmlns="http://www.w3.org/2000/svg" xmlns:xlink="http://www.w3.org/1999/xlink" width="132" height="83" viewBox="0 0 132 83">
    <defs>
        <path id="a" d="M0 21.66V.228h22.479V21.66z"/>
        <path id="c" d="M20.584 21.818H.168V.054h20.416z"/>
        <path id="e" d="M.108.062h5.214V5.32H.108z"/>
    </defs>
    <g fill="none" fill-rule="evenodd">
        <path fill="#FFF" d="M0 0h132v83H0z"/>
        <path fill="#2A2A89" d="M64.117 37.313c-.802 2.242-3.013 1.978-3.013 1.978l-3.018.001 1.191-4.441s1.91.01 3.173.01c1.544 0 2.104 1.228 1.667 2.452m6.338-2.075c.49-3.888-2.467-5.51-6.16-5.51h-9.7l-5.726 20.908h6.164l1.733-6.446 4.911.03s7.606.323 8.778-8.982M34.804 35.182h5.72L38.17 44.41s-.588 2.058 1.303 2.217c1.494.125 2.605-1.69 2.97-2.918.477-1.615 2.337-8.527 2.337-8.527h5.893l-4.484 15.707h-5.146l.633-2.244s-2.626 3.259-6.526 2.868c-3.467-.347-3.766-2.907-3.165-6.101.295-1.568 2.82-10.23 2.82-10.23"/>
        <path fill="#2A2A89" d="M75.34 46.956c-.953.241-2.108.372-2.338-.493-.63-2.37 4.927-3.065 4.927-3.065.038 2.16-1.857 3.372-2.588 3.558m8.404-4.34c.733-2.494 1.66-4.855.914-6.164-1.142-2.003-3.207-2.18-6.227-2.18-3.336 0-7.456.634-8.798 5.067h5.555s.506-1.67 2.591-1.565c1.846.093 1.745 1.362 1.064 2.063-1.192 1.23-4.487.548-8.135 1.812-3.187 1.105-4.303 5.293-3.61 6.964.67 1.62 1.92 1.827 3.607 1.992 2.708.266 4.784-1.242 5.75-2.127 0 .983.026 1.532.026 1.532h5.845l-.013-.55s-.521-.138-.463-.869c.042-.535 1.052-3.11 1.894-5.975"/>
        <g transform="translate(11 28.818)">
            <mask id="b" fill="#fff">
                <use xlink:href="#a"/>
            </mask>
            <path fill="#2A2A89" d="M15.777 7.955c-.812 1.896-3.326 1.68-3.326 1.68l-2.928-.013 1.069-4.016s2.62.01 3.903.01c1.376 0 1.805 1.115 1.282 2.339m6.654-2.736c.498-3.985-2.976-4.99-6.733-4.99H5.827L0 21.658h6.273l1.958-7.276 3.519.029s1.452-.085 1.48 1.291c.031 1.468-1.078 4.163-1.006 5.957h6.444l-.014-.571s-.536-.143-.476-.903c.025-.316.37-1.315.823-2.664.272-.594.684-2.004.646-3.152-.047-1.434-.938-2.098-2.224-2.564 4.006-.948 5.008-6.587 5.008-6.587" mask="url(#b)"/>
        </g>
        <g transform="translate(82.23 35.182)">
            <mask id="d" fill="#fff">
                <use xlink:href="#c"/>
            </mask>
            <path fill="#2A2A89" d="M4.34.054h5.837v9.243l5.05-9.243h5.357l-10.8 18.688S8.78 20.31 7.536 21.14c-1.022.681-2.278.65-2.662.678C2.74 21.8.168 21.794.168 21.794l1.241-4.455 2.01-.003s.918-.094 1.274-.546c.338-.43.51-.861.51-1.493C5.204 14.35 4.34.054 4.34.054" mask="url(#d)"/>
        </g>
        <path fill="#0F8047" d="M110.613 31.545l-6.744 23.637 12.623-11.818z"/>
        <path fill="#F0721D" d="M106.104 31.545l-6.743 23.637 12.623-11.818z"/>
        <g transform="translate(115.59 27)">
            <mask id="f" fill="#fff">
                <use xlink:href="#e"/>
            </mask>
            <path fill="#000" d="M2.715.3A2.384 2.384 0 0 0 .343 2.69a2.384 2.384 0 0 0 2.372 2.392A2.384 2.384 0 0 0 5.087 2.69 2.384 2.384 0 0 0 2.715.299m0 5.02C1.277 5.32.108 4.14.108 2.691c0-1.45 1.17-2.629 2.607-2.629 1.437 0 2.607 1.18 2.607 2.629s-1.17 2.628-2.607 2.628" mask="url(#f)"/>
        </g>
        <path fill="#000" d="M117.241 30.636v-1.603h-.75v-.215h1.804v.215h-.753v1.603zM118.295 30.636v-1.818h.377l.447 1.287.09.27c.022-.067.055-.164.101-.292l.452-1.265h.336v1.818h-.24v-1.521l-.55 1.521h-.225l-.547-1.548v1.548h-.24z"/>
    </g>
</svg>
