<svg xmlns="http://www.w3.org/2000/svg" xmlns:xlink="http://www.w3.org/1999/xlink" width="132" height="83" viewBox="0 0 132 83">
    <defs>
        <path id="a" d="M.01.043h15.931v30.043H.011z"/>
        <path id="c" d="M0 5.5V.03h5.188V5.5z"/>
    </defs>
    <g fill="none" fill-rule="evenodd">
        <path fill="#FFF" d="M0 0h132v83H0z"/>
        <path fill="#6C6E71" d="M60.707 40.246l-3.36 12.06h-5.89c-.179-.463.082-.865.192-1.257 1.275-4.53 2.546-9.061 3.753-13.61.271-1.022.595-2.03.92-3.135 3.32-.047 6.645.004 9.97-.003 3.31-.007 6.618-.002 9.926-.002h10.05c.57-2.035 1.132-4.044 1.71-6.103-.735-.136-1.445-.05-2.15-.064-.716-.016-1.433-.004-2.15-.004H62.421c-.716 0-1.434.012-2.15-.003-.709-.015-1.422.068-2.23-.076l1.579-5.753c.28-.174.505-.112.72-.112 10.725-.003 21.45-.002 32.175-.004.496 0 .979-.001 1.437.263.6.347.916.857.977 1.523.06.663-.103 1.293-.284 1.934-.98 3.482-1.92 6.976-2.88 10.463-.269.974-.533 1.94-1.326 2.675-.842.78-1.762 1.222-2.944 1.219-8.685-.021-17.37-.011-26.055-.011h-.733zM19.659 22.203h6.015l-6.67 24.038c.62.2 19.73.289 23.916.11l6.703-24.13h6.052c-.486 1.71-.967 3.378-1.432 5.05-.677 2.44-1.341 4.883-2.012 7.323-.612 2.229-1.223 4.458-1.84 6.685-.655 2.36-1.313 4.717-1.976 7.073-.198.707-.4 1.414-.632 2.11-.395 1.181-1.289 1.83-2.521 1.858-.33.008-.662.004-.993.004H14.825c-.276 0-.552.006-.827-.01-1.176-.066-1.945-.907-2-2.072-.031-.684.214-1.296.38-1.918.81-3.023 1.675-6.03 2.515-9.044.81-2.909 1.615-5.82 2.421-8.729.567-2.044 1.129-4.09 1.698-6.133.204-.73.424-1.454.647-2.215M97.706 52.145h-5.833c-.05-.044-.076-.059-.089-.082-.012-.021-.012-.051-.012-.077 0-.055-.01-.113.004-.165.089-.342.18-.683.275-1.023l7.937-28.714h6.041l-8.323 30.061"/>
        <path fill="#F47921" d="M108.675 46.695c-1.022.84-1.903 1.827-2.867 2.729-.863.807-1.724 1.617-2.586 2.425-.08.075-.166.143-.32.095-.172-.46.07-.915.19-1.326.73-2.535 1.411-5.082 2.12-7.623.795-2.856 1.67-5.69 2.415-8.559.86-3.314 1.85-6.592 2.705-9.907.197-.762.444-1.512.667-2.264.282.02.275.253.352.404.914 1.804 1.818 3.613 2.738 5.414.117.23.1.532.357.69.632.403.734 1.14 1.05 1.73 1.068 1.986 2.026 4.028 3.023 6.05.234.473.272.865-.156 1.255-2.762 2.52-5.422 5.15-8.17 7.685-.06.056-.13.102-.196.15-.473.31-.902.675-1.322 1.052"/>
        <g transform="translate(108.035 22.022)">
            <mask id="b" fill="#fff">
                <use xlink:href="#a"/>
            </mask>
            <path fill="#018B45" d="M1.77 23.535c.047-.027.103-.045.14-.081C3.463 21.97 5.004 20.476 6.565 19c1.193-1.128 2.411-2.23 3.616-3.347.139-.129.31-.235.377-.51L6.411 6.75c.4-1.134.685-2.301 1.004-3.459.284-1.027.572-2.054.905-3.25 2.59 5.12 5.082 10.125 7.621 15.177-5.293 4.997-10.534 9.994-15.93 14.867.386-1.443.75-2.892 1.174-4.323.107-.363.033-.767.271-1.092.153-.365-.02-.82.314-1.136" mask="url(#b)"/>
        </g>
        <path fill="#3A3C3D" d="M55.41 62.425l-.92-3.055c-.489 1.054-.94 2.023-1.37 2.953-.256.145-.466.127-.528.107-.214-.082-.228-.126-.2-.192.143-.325.275-.655.427-.976.645-1.364 1.295-2.726 2.013-4.234l.951 3.892 2.654-3.729c.134.62.168 3.746.058 5.165-.065.022-.138.064-.212.066-.161.005-.33.046-.55-.116 0-.433.016-.923-.005-1.41-.02-.47.155-.926.065-1.471l-2.382 3M19.417 57.04c.297-.099.537-.087.874-.017L19 62.453l-3.123-3.655-.864 3.539c-.291.153-.552.07-.896.075l1.331-5.526 3.064 3.739c.384-1.185.554-2.387.904-3.584"/>
        <path fill="#393C3D" d="M86.033 60.692l.868-3.619c.29-.151.572-.131.89-.034l-1.296 5.401-3.118-3.638-.864 3.535c-.266.173-.53.045-.892.11l1.318-5.537a79.216 79.216 0 0 1 3.094 3.782"/>
        <path fill="#3A3C3D" d="M64.586 56.877l3.093 3.784.851-3.564c.27-.2.56-.129.903-.092l-1.302 5.44-3.117-3.65-.862 3.537c-.283.166-.544.067-.894.091l1.328-5.546"/>
        <g transform="translate(9 56.937)">
            <mask id="d" fill="#fff">
                <use xlink:href="#c"/>
            </mask>
            <path fill="#393B3C" d="M4.407.14c.275-.149.509-.137.778-.024C5.223.78 4.9 1.38 4.81 2.022c-.065.458-.203.906-.321 1.356C3.968 5.353 2.543 5.7.944 5.412.318 5.299.009 4.8 0 4.137-.005 3.695.09 3.27.2 2.842.435 1.92.65.992.865.106c.316-.12.548-.06.812-.047-.004.692-.27 1.273-.389 1.882-.1.51-.275 1.004-.378 1.512-.18.895.365 1.458 1.264 1.311.718-.117 1.187-.536 1.368-1.25.269-1.059.531-2.12.797-3.18.014-.053.036-.104.068-.194" mask="url(#d)"/>
        </g>
        <path fill="#3A3C3D" d="M29.78 57.015h2.885c.095.276 0 .471-.111.723h-2.067c-.093.46-.278.85-.294 1.376h1.944c.102.34.05.564-.148.792h-1.954c-.348.543-.283 1.164-.56 1.785h2.155l-.144.688h-2.958c.346-1.817.836-3.584 1.251-5.364M60.568 56.992h2.873c.079.267.041.491-.159.761h-2.037c-.075.447-.265.814-.266 1.255.294.212.632.089.945.109.325.02.652.005.987.005.1.303.062.528-.14.793h-2.034c-.158.59-.343 1.127-.402 1.737.66.146 1.322-.019 1.943.092.102.23.046.405-.053.636-.923.116-1.876.002-2.816.058-.128-.692.782-3.74 1.159-5.446"/>
        <path fill="#3A3B3C" d="M91.555 62.391l1.289-5.378H95.7c.144.23.019.452-.043.748H93.5c-.049.464-.25.83-.237 1.287.632.168 1.293.007 1.925.1.13.285.028.5-.092.765h-2.075l-.425 1.73c.703.16 1.391-.014 2.093.112l-.174.636h-2.96z"/>
        <path fill="#393B3D" d="M114.877 57.004h2.846c.12.263.05.484-.084.76h-2.07l-.314 1.35h1.943c.14.295.064.517-.04.785h-2.065c-.257.578-.282 1.173-.468 1.798h2.08l-.134.688h-2.956c.374-1.782.827-3.533 1.262-5.381"/>
        <path fill="#393B3C" d="M113.646 57.401c-.012.11-.009.223-.04.325-.05.156-.123.304-.2.49-.777-.675-1.606-.758-2.513-.344-.914.417-1.395 1.164-1.523 2.102-.148 1.078.579 1.87 1.824 1.715.492-.061.932-.31 1.384-.545.214.272-.05.511.008.737-.791.567-1.631.638-2.49.5-1.174-.19-1.885-1.386-1.555-2.652.45-1.73 2.037-3.17 4.242-2.777.333.06.62.195.863.45"/>
        <path fill="#383A3B" d="M73.167 61.323c.174-.192.434-.228.67-.365.197.448.477.828 1.035.744.537-.082.89-.397.996-.962-.094-.343-.377-.521-.651-.703-.16-.105-.337-.186-.498-.29-.851-.557-1.064-1.218-.273-2.214.462-.581 1.518-.817 2.201-.547.308.121.607.286.578.702-.128.25-.401.261-.619.4-.122-.115-.228-.245-.361-.334-.4-.269-.933-.14-1.228.28-.255.364-.145.72.332 1.026.161.103.343.174.51.268 1.033.579 1.193 1.601.363 2.44-.638.644-1.445.79-2.29.596-.496-.113-.749-.517-.765-1.04"/>
        <path fill="#3A3C3D" d="M103.318 59.111c.077.349.027.555-.114.76-.345.093-.703.034-1.057.045-.328.01-.655.002-1.018.002a18631 18631 0 0 0-.605 2.434c-.252.126-.51.09-.858.023l1.258-5.29c.486-.223.987-.089 1.473-.111.463-.022.929-.005 1.384-.005.178.294.03.504-.043.782h-2.104c-.071.467-.292.85-.248 1.36h1.932z"/>
        <path fill="#3B3D3E" d="M26.023 59.113c.12.305.064.507-.075.758-.64.135-1.332-.02-2.026.085-.395.762-.32 1.66-.707 2.432-.24.057-.477.062-.798-.02l1.276-5.35h2.878c.06.253.019.46-.082.727H24.47c-.264.429-.266.87-.411 1.368h1.963zM89.582 57.765h-1.366c-.05-.312.1-.513.17-.765h3.537c.023.102.06.18.051.252-.02.16 0 .333-.177.51H90.47l-1.105 4.596c-.257.143-.544.051-.875.048l1.092-4.641"/>
        <path fill="#3C3D3E" d="M71.234 57.752h-1.448l.224-.756h3.656c.02.274-.096.484-.176.748H72.11L71 62.354c-.262.119-.525.093-.867.019l1.102-4.62"/>
        <path fill="#3B3D3E" d="M50.332 62.407h-.642c-.131-.065-.126-.146-.109-.225.118-.534.197-1.082.37-1.597.144-.424.102-.797-.049-1.192-.29-.76-.57-1.526-.837-2.245.115-.215.262-.178.393-.177.134 0 .269.016.456.028l.813 2.186c.58-.653 1.107-1.235 1.62-1.83.275-.319.576-.503 1.05-.316-.115.38-.478.573-.67.886a.991.991 0 0 1-.096.132c-.54.62-1.206 1.173-1.586 1.88-.363.674-.428 1.508-.626 2.272-.013.05-.041.096-.087.198"/>
        <path fill="#3B3E3E" d="M21.545 57.043c.337-.096.575-.103.87-.005l-1.28 5.338c-.316.066-.552.079-.859-.014l1.269-5.319"/>
        <path fill="#3B3D3F" d="M80.402 62.388c-.342.043-.581.084-.856-.042l1.287-5.33c.336-.05.573-.091.848.042l-1.28 5.33"/>
        <path fill="#3C3E3F" d="M27.207 62.398c-.303.025-.544.08-.843-.076l1.246-5.21c.297-.213.531-.129.86-.11-.373 1.83-.822 3.584-1.263 5.396"/>
        <path fill="#393B3C" d="M36.807 59.108c-.088 1.537-1.027 2.653-2.567 2.604-.216-.006-.433 0-.804 0l.951-3.944c.432 0 .813-.02 1.192.004.808.053 1.274.534 1.228 1.336m.819-.817c-.126-.658-.619-1.065-1.316-1.2-.842-.162-1.684-.113-2.605-.116l-1.297 5.412c.865 0 1.663.062 2.449-.012 1.943-.183 3.106-2.322 2.769-4.084M98.186 59.21c-.33.2-.69.311-1.102.132-.036-.533.268-.986.328-1.464.122-.147.265-.104.397-.107.307-.007.617 0 .75.351.138.362-.032.881-.373 1.088m1.311-.828c.147-.65-.142-1.105-.78-1.309-.622-.198-1.249-.052-1.97-.12l-1.297 5.433c.33.053.615.084.88-.031.193-.784.3-1.545.616-2.371l1.188 2.396c.32.064.612.087.946-.023-.353-.806-.863-1.516-1.17-2.361.952-.166 1.397-.774 1.587-1.614M105.046 60.234c.194-.489.581-.816.817-1.241.054-.098.125-.177.256-.201l.322 1.442h-1.395zm1.43-3.228l-3.81 5.341c.317.125.582.097.869.03l.949-1.317c.728.059 1.44-.078 2.147.09.05.444.106.847.286 1.264.274.002.563.07.84-.07l-1.28-5.338zM45.457 60.275l1.103-1.577.358 1.499c-.455.154-.912.047-1.461.078m2.138-.59c-.214-.847-.323-1.727-.684-2.599l-3.796 5.296c.33.055.597.067.904.001l.884-1.287H47c.221.414.241.854.321 1.301.329.022.619.093.908-.056-.213-.9-.412-1.78-.634-2.656"/>
        <path fill="#3A3C3D" d="M41.885 59.207l.32-1.414c.43-.026.833-.108 1.235.197.088 1.125-.21 1.357-1.555 1.217m1.681-2.143c-.672-.18-1.341-.093-2.014-.058a127.19 127.19 0 0 0-1.279 5.385c.342.036.58.075.806-.025.314-.74.306-1.556.642-2.299.266 0 .512.02.754-.003 1.221-.119 1.634-.644 1.928-1.597.21-.681-.143-1.218-.837-1.403"/>
    </g>
</svg>
